<svg width="104" height="103" viewBox="0 0 104 103" fill="none" xmlns="http://www.w3.org/2000/svg">
<path d="M52 -0.000229565C39.3459 -0.00970246 27.1232 4.59841 17.625 12.9596C8.12678 21.3207 2.00579 32.8603 0.410396 45.4134C-1.185 57.9665 1.85485 70.6704 8.95962 81.1416C16.0644 91.6129 26.7458 99.1319 39 102.288V88.7248C32.0605 86.2884 25.9499 81.9423 21.3713 76.1866C16.7926 70.431 13.932 63.4996 13.1185 56.19C12.305 48.8804 13.5718 41.4896 16.7729 34.8681C19.9741 28.2467 24.9797 22.6635 31.2137 18.761C37.4477 14.8586 44.6568 12.7954 52.0115 12.809C59.3662 12.8226 66.5677 14.9123 72.7872 18.8377C79.0068 22.7631 83.9918 28.3647 87.1685 34.9979C90.3453 41.6312 91.5847 49.0266 90.7443 56.3331H103.779C103.9 54.8988 104 53.4644 104 51.9998C103.985 38.2131 98.5017 24.9953 88.7531 15.2467C79.0044 5.49803 65.7866 0.0146818 52 -0.000229565V-0.000229565Z" fill="#374957"/>
</svg>
