<svg width="112" height="108" viewBox="0 0 112 108" fill="none" xmlns="http://www.w3.org/2000/svg">
<g clip-path="url(#clip0_422_898)" filter="url(#filter0_d_422_898)">
<path d="M21.333 30.3314C19.3404 30.337 17.3665 29.9473 15.5256 29.1849C13.6846 28.4225 12.0132 27.3025 10.608 25.8898L3.73535 19.0214L12.9307 9.82609L19.799 16.6944C20.2053 17.1006 20.7563 17.3288 21.3309 17.3288C21.9054 17.3288 22.4564 17.1006 22.8627 16.6944L38.402 1.15942L47.5974 10.3504L32.058 25.8898C30.6529 27.3025 28.9814 28.4225 27.1405 29.1849C25.2995 29.9473 23.3256 30.337 21.333 30.3314V30.3314ZM108 8.66476H55.9997V21.6648H108V8.66476ZM32.058 60.5564L47.5974 45.0171L38.402 35.8261L22.8627 51.3654C22.4564 51.7716 21.9054 51.9998 21.3309 51.9998C20.7563 51.9998 20.2053 51.7716 19.799 51.3654L12.9307 44.4928L3.73535 53.6881L10.608 60.5564C12.0164 61.9649 13.6884 63.0822 15.5286 63.8445C17.3688 64.6068 19.3412 64.9992 21.333 64.9992C23.3249 64.9992 25.2972 64.6068 27.1374 63.8445C28.9776 63.0822 30.6496 61.9649 32.058 60.5564V60.5564ZM108 43.3314H55.9997V56.3314H108V43.3314ZM32.058 95.2231L47.5974 79.6838L38.402 70.4928L22.8627 86.0321C22.4564 86.4383 21.9054 86.6665 21.3309 86.6665C20.7563 86.6665 20.2053 86.4383 19.799 86.0321L12.9307 79.1594L3.73535 88.3547L10.608 95.2231C12.0164 96.6316 13.6884 97.7489 15.5286 98.5112C17.3688 99.2735 19.3412 99.6658 21.333 99.6658C23.3249 99.6658 25.2972 99.2735 27.1374 98.5112C28.9776 97.7489 30.6496 96.6316 32.058 95.2231V95.2231ZM108 77.9981H55.9997V90.9981H108V77.9981Z" fill="#374957"/>
</g>
<defs>
<filter id="filter0_d_422_898" x="0" y="0" width="112" height="112" filterUnits="userSpaceOnUse" color-interpolation-filters="sRGB">
<feFlood flood-opacity="0" result="BackgroundImageFix"/>
<feColorMatrix in="SourceAlpha" type="matrix" values="0 0 0 0 0 0 0 0 0 0 0 0 0 0 0 0 0 0 127 0" result="hardAlpha"/>
<feOffset dy="4"/>
<feGaussianBlur stdDeviation="2"/>
<feComposite in2="hardAlpha" operator="out"/>
<feColorMatrix type="matrix" values="0 0 0 0 0 0 0 0 0 0 0 0 0 0 0 0 0 0 0.25 0"/>
<feBlend mode="normal" in2="BackgroundImageFix" result="effect1_dropShadow_422_898"/>
<feBlend mode="normal" in="SourceGraphic" in2="effect1_dropShadow_422_898" result="shape"/>
</filter>
<clipPath id="clip0_422_898">
<rect width="104" height="104" fill="white" transform="translate(4)"/>
</clipPath>
</defs>
</svg>
