<svg width="476" height="445" viewBox="0 0 476 445" fill="none" xmlns="http://www.w3.org/2000/svg">
<path d="M457.772 378.314C458.236 376.197 458.314 373.976 457.978 371.833C457.487 374.518 456.687 377.204 455.138 379.45C453.64 378.624 452.091 377.952 450.671 377.539C447.546 376.61 444.68 375.035 442.692 372.736C435.72 364.732 445.429 357.527 453.459 353.163C465.699 346.501 478.945 336.612 474.246 323.262C472.774 319.053 469.727 315.386 465.854 312.572C455.783 305.212 443.854 301.236 431.278 298.912C432.724 296.02 434.17 293.128 435.591 290.236C432.983 291.475 430.607 293.231 428.619 295.349C432.518 288.532 438.018 282.67 444.525 278.306C438.689 278.9 433.163 281.999 429.652 286.672C429.91 277.686 433.267 268.804 439.051 261.909C430.581 268.83 424.1 278.151 420.562 288.506C419.039 284.064 418.806 279.184 419.917 274.614C417.567 279.804 416.328 285.51 416.276 291.217C415.372 288.841 414.494 286.44 413.59 284.064C413.616 286.853 413.048 289.642 411.938 292.198C409.743 283.238 404.604 275.001 397.504 269.114C400.163 276.034 401.403 283.496 401.17 290.933C400.06 287.886 397.478 285.407 394.405 284.4C395.489 287.628 396.032 291.062 396.006 294.471C396.057 287.55 380.487 282.567 375.658 281.198C380.978 284.917 385.135 289.978 389.292 294.987C380.177 294.445 371.062 293.903 361.921 293.36C360.449 293.283 358.977 293.257 357.506 293.257C352.419 291.01 347.254 288.919 342.038 287.034C337.545 285.407 332.897 283.858 329.205 280.604C324.531 276.473 320.606 269.449 315.571 267.306C315.339 259.844 315.261 252.355 315.313 244.893C315.468 231.93 315.984 218.942 317.249 206.057C317.714 201.073 318.308 196.09 319.005 191.132H319.341C319.315 190.512 319.315 189.867 319.289 189.247C319.418 188.421 319.522 187.62 319.651 186.794C320.658 180.416 321.897 174.064 323.524 167.815C325.151 161.566 327.088 155.42 329.618 149.533C330.909 146.564 332.381 143.646 334.059 140.883C335.48 143.155 338.656 143.723 341.444 143.697C344.775 146.021 349.139 146.667 352.961 148.242C361.56 151.805 367.55 160.946 367.344 170.268C369.823 165.852 371.914 161.204 373.541 156.402C375.762 149.869 377.156 142.587 374.755 136.132C372.353 129.65 364.968 124.641 358.461 126.965C357.79 127.197 357.118 127.507 356.395 127.481C355.75 127.455 355.13 127.146 354.536 126.887C349.888 124.77 340.98 124.099 336.977 128.153C336.693 128.437 336.487 128.746 336.306 129.082C334.524 131.096 333.388 134.427 333.285 137.19C330.858 140.728 328.843 144.524 327.113 148.423C324.454 154.465 322.414 160.74 320.71 167.092C319.909 170.035 319.212 172.979 318.592 175.949C318.282 171.869 317.843 167.815 317.172 163.787C316.63 159.242 315.597 154.775 314.796 150.308C313.712 145.866 312.782 141.399 311.465 137.035C309.038 128.256 306.069 119.631 302.583 111.214C300.594 106.411 298.451 101.659 296.127 96.9857C302.324 98.9482 308.057 100.549 314.9 99.4646C322.698 98.2251 330.109 93.9129 334.421 87.3025C338.707 80.718 339.663 72.5583 340.334 64.7085C341.005 56.7812 341.496 48.8281 341.987 40.875C337.494 51.1521 328.327 59.2601 317.585 62.4878C313.273 63.7789 308.702 64.347 304.597 66.232C296.05 70.1569 290.756 80.2015 292.331 89.4716C292.073 89.1617 291.815 88.8518 291.557 88.542C291.221 87.9481 290.911 87.3542 290.576 86.7603C290.86 87.2509 291.092 87.7673 291.35 88.2838C281.357 76.2508 267.104 67.5231 251.585 65.4831C235.575 63.3916 218.43 68.9174 207.636 80.9504C217.216 74.5466 230.127 76.4316 240.791 80.718C251.481 85.0044 261.371 91.4857 272.604 93.9646C279.24 95.4364 286.625 93.9904 292.977 96.0045C293.855 96.2885 294.707 96.5467 295.533 96.8308C297.754 101.659 299.794 106.591 301.627 111.549C304.803 120.045 307.437 128.695 309.555 137.5C310.717 141.864 311.465 146.331 312.395 150.747C313.04 155.214 313.918 159.655 314.28 164.148C315.416 173.082 315.519 182.12 315.416 191.08H315.778C315.39 193.585 315.055 196.115 314.745 198.62C313.763 195.935 312.679 193.327 311.465 190.719C309.193 185.89 306.559 181.191 303.357 176.904C300.181 172.592 296.411 168.667 291.97 165.594C289.749 164.071 287.374 162.78 284.869 161.773C283.733 161.334 282.571 160.972 281.383 160.688C279.73 158.7 277.897 156.892 277.355 157.176C275.831 157.977 274.308 158.777 272.784 159.552C268.756 156.711 262.766 158.003 259.331 161.566C255.923 165.129 254.735 170.371 254.993 175.303C255.251 180.235 256.723 185.012 257.963 189.789C259.202 194.566 260.235 199.524 259.512 204.43C264.237 201.461 270.073 200.479 274.463 197.045C280.686 192.165 282.467 183.644 283.836 175.845C284.404 172.643 285.334 168.228 284.353 165C284.223 164.587 283.655 163.709 282.932 162.702C283.371 162.857 283.81 163.012 284.249 163.193C286.599 164.226 288.82 165.517 290.911 167.04C295.043 170.113 298.554 173.986 301.498 178.221C304.468 182.456 306.869 187.078 308.935 191.829C310.949 196.529 312.653 201.461 313.841 206.367C312.524 219.148 311.904 232.008 311.646 244.841C311.543 252.123 311.569 259.405 311.724 266.686C311.336 266.712 310.923 266.79 310.51 266.893C303.925 268.597 302.273 278.255 297.108 283.083C296.979 283.186 296.876 283.29 296.747 283.393C295.869 283.987 294.991 284.581 294.139 285.201C292.512 286.104 290.782 286.75 289.078 287.395C287.219 288.093 285.385 288.79 283.526 289.461C279.162 289.28 274.747 289.177 270.331 289.177C256.775 289.229 243.244 289.797 229.765 290.804C225.892 283.78 224.988 275.156 227.441 267.513C223.826 273.916 220.883 280.708 218.688 287.705C216.803 282.877 216.545 277.454 217.913 272.47C214.66 276.215 212.232 280.682 210.812 285.433C208.152 272.445 208.436 258.837 211.664 245.977C205.08 257.003 200.974 269.501 199.657 282.283C197.178 278.9 195.009 275.285 193.202 271.489C194.08 275.956 194.983 280.449 195.861 284.917C190.361 276.809 183.157 269.862 174.868 264.621C182.744 271.283 188.605 280.294 191.497 290.21C188.554 286.104 184.138 283.057 179.232 281.792C183.415 285.82 187.237 290.21 190.697 294.858C183.725 295.762 176.779 296.769 169.859 297.853L200.458 348.619C200.458 348.619 203.995 372.995 203.324 392.18C201.723 393.239 200.174 394.427 198.727 395.692C195.371 394.737 191.833 394.194 188.115 394.194C187.495 394.194 186.849 394.22 186.23 394.246C185.92 394.272 185.61 394.298 185.274 394.323C185.171 394.323 185.068 394.349 184.99 394.349C183.028 394.53 181.091 394.866 179.18 395.33C179.155 395.33 179.129 395.356 179.103 395.356C178.225 395.589 177.347 395.847 176.469 396.131C176.314 396.183 176.159 396.234 176.004 396.286C175.152 396.57 174.3 396.88 173.474 397.241H173.448C173.216 397.112 172.983 397.009 172.751 396.88C172.338 396.647 171.899 396.441 171.46 396.234C171.124 396.079 170.788 395.899 170.427 395.744C169.807 395.46 169.162 395.201 168.516 394.943C168.206 394.814 167.87 394.711 167.561 394.607C167.354 394.53 167.147 394.478 166.941 394.401C165.262 386.138 164.875 377.617 165.831 369.225C163.223 374.415 162.99 380.431 162.835 386.241C159.762 375.319 158.859 363.776 160.201 352.492C157.619 361.814 157.18 371.729 158.936 381.232C155.011 374.157 149.847 367.804 143.727 362.511C147.136 368.915 149.924 375.654 151.99 382.626C148.917 376.79 143.727 372.427 138.847 367.985C129.964 359.877 121.727 351.02 114.316 341.569C122.114 355.952 132.598 368.682 143.03 381.283C140.035 378.495 136.42 376.403 132.546 375.164C134.199 376.997 135.464 379.192 136.29 381.542C115.375 365.222 97.1188 349.368 97.1188 349.368L85.938 314.663C78.5013 316.367 71.0388 318.046 63.5505 319.673C60.7101 320.344 57.8697 321.067 55.0293 321.738C54.2547 320.241 53.7382 318.717 54.2805 317.245C53.2476 318.691 52.2148 320.137 51.1561 321.583C50.0716 314.715 51.2852 307.485 54.5645 301.365C48.0833 305.884 43.3063 312.752 41.318 320.37C40.595 316.187 40.4142 311.9 40.8015 307.666C38.0903 312.236 36.1278 317.22 34.9658 322.384C33.2358 314.302 30.9634 306.323 28.2005 298.525C30.7052 307.33 30.9893 316.806 28.8719 325.715C26.1089 320.938 23.8108 315.877 22.0291 310.635C22.2357 314.328 22.4681 317.994 22.6747 321.687C19.0338 315.49 16.5549 308.595 15.4187 301.468C15.4962 310.325 16.3741 319.156 18.0784 327.832C16.4516 326.954 15.1347 325.457 14.4891 323.701C15.1863 326.335 15.9093 329.02 17.0971 331.447C13.7661 332.687 10.7192 334.339 8.55014 337.025C6.76844 339.246 6.01961 342.034 6.82008 344.642C8.13699 348.903 12.5267 350.091 16.5807 351.124C28.9235 354.222 41.2663 357.321 53.6091 360.419C56.5012 361.142 59.4965 361.917 61.6397 363.75C63.7829 365.584 64.6867 368.786 62.7759 370.8C60.1162 373.614 53.0411 374.053 54.1514 377.539C57.5599 378.52 61.1233 379.605 63.0857 382.394C64.0411 383.736 64.351 385.441 63.6796 386.913C62.5693 389.366 59.7289 389.779 57.1725 390.114C50.3556 391.018 43.3579 392.438 36.9283 394.711C36.0245 390.218 36.2053 385.518 37.6255 381.154C33.1841 383.582 29.9048 388.049 28.9235 393.032C28.0972 387.997 27.8648 382.859 28.2263 377.772C25.7733 383.091 24.508 388.952 24.6113 394.814C23.1136 385.363 19.2145 376.3 13.353 368.708C17.9751 377.255 20.8155 386.732 21.6934 396.415C19.8601 388.823 16.3741 381.645 11.5971 375.474C16.3225 383.427 19.9634 391.999 22.4164 400.908C20.9704 399.617 19.8601 397.964 19.1629 396.157C19.4986 399.333 20.1441 402.561 21.4352 405.453C20.4023 408.939 21.6418 412.863 25.231 415.316C40.3109 425.594 59.9613 430.551 78.9919 434.115C133.063 444.237 189.044 446.664 244.019 441.267C259.873 439.718 276.244 437.317 289.336 429.364C293.622 426.756 297.496 423.605 302.195 421.643C308.418 419.035 315.545 418.777 322.44 418.467C350.327 417.201 378.137 414.645 405.715 410.746C424.203 408.138 443.492 404.549 457.617 393.859C459.166 392.697 460.664 391.38 461.335 389.701C461.671 388.849 461.748 387.997 461.645 387.197C462.213 385.802 462.445 384.305 462.807 382.833C463.633 379.424 465.363 376.222 467.765 373.666C466.086 374.596 464.537 375.783 463.194 377.178C465.286 371.549 468.565 366.358 472.748 362.046C466.396 365.739 461.051 371.523 457.772 378.314Z" fill="#377036"/>
<path d="M28.3039 298.473C27.4518 295.529 26.3673 292.637 25.0245 289.874C26.1865 292.715 27.271 295.581 28.3039 298.473Z" fill="#377036"/>
<path d="M136.394 381.516C135.568 379.166 134.302 376.997 132.65 375.138C136.549 376.377 140.138 378.469 143.133 381.258C132.701 368.631 122.218 355.926 114.42 341.544C121.856 351.02 130.067 359.851 138.95 367.959C143.831 372.401 149.021 376.765 152.093 382.6C150.028 375.654 147.265 368.889 143.83 362.485C149.95 367.753 155.14 374.131 159.04 381.206C157.284 371.704 157.723 361.788 160.305 352.466C158.962 363.75 159.866 375.267 162.939 386.215C163.094 380.405 163.326 374.389 165.934 369.199C165.004 377.565 165.392 386.112 167.044 394.375C167.251 394.453 167.457 394.504 167.664 394.582C167.974 394.685 168.31 394.814 168.619 394.917C169.265 395.176 169.91 395.434 170.53 395.718C170.866 395.873 171.227 396.028 171.563 396.208C172.002 396.415 172.415 396.647 172.854 396.854C173.087 396.983 173.319 397.086 173.551 397.215H173.577C174.403 396.854 175.256 396.544 176.108 396.26C176.263 396.208 176.418 396.157 176.573 396.105C177.45 395.821 178.328 395.563 179.206 395.33C179.232 395.33 179.258 395.305 179.284 395.305C181.195 394.814 183.131 394.504 185.094 394.323C185.197 394.323 185.3 394.298 185.378 394.298C185.688 394.272 185.997 394.246 186.333 394.22C186.953 394.194 187.598 394.168 188.218 394.168C191.936 394.168 195.474 394.711 198.831 395.666C200.277 394.401 201.826 393.213 203.427 392.154C204.099 372.995 200.561 348.593 200.561 348.593L169.962 297.827L154.082 271.489L133.295 271.567C128.131 261.031 122.812 251.297 117.828 243.912L117.854 243.963C117.854 243.963 120.178 243.498 121.185 241.304C122.063 239.393 117.854 231.775 110.159 231.13C100.605 208.949 63.6797 124.822 50.7689 117.746C44.5458 114.338 39.0458 115.965 34.7077 119.554C22.933 127.714 24.4565 138.171 24.4565 138.171C24.4048 138.843 24.7922 140.082 25.5668 141.812C34.3204 162.676 91.309 242.259 91.309 242.259C85.3958 250.858 97.5837 251.322 97.5837 251.322L95.4663 244.376L103.833 271.696L80.7996 271.799L73.776 276.834L85.9639 314.663L97.1447 349.368C97.2222 349.316 115.478 365.196 136.394 381.516Z" fill="#908F90"/>
<path d="M25.0246 289.874C26.3673 292.637 27.4518 295.529 28.304 298.473C28.3298 298.524 28.3298 298.576 28.3556 298.628C28.8462 299.222 29.3626 299.815 29.8791 300.384C32.8744 303.74 36.2054 306.839 39.7946 309.628C40.1561 308.956 40.5435 308.259 40.9308 307.614C40.8533 308.543 40.8017 309.473 40.7759 310.377C41.9637 311.28 43.1773 312.132 44.3909 312.959C46.5858 308.905 49.5811 305.316 53.1961 302.475C49.3745 299.609 45.8111 296.355 42.635 292.818C32.203 281.198 25.3861 266.764 20.1443 252.045C16.0903 240.658 12.8884 228.341 15.6255 216.54C19.5246 199.782 33.3908 189.453 48.006 179.228C46.689 177.214 45.398 175.251 44.1327 173.289C25.7476 186.329 5.99395 197.923 1.08781 219.045C-1.83005 231.62 1.57842 244.738 5.91648 256.9C11.2358 271.851 18.1044 286.517 28.3556 298.602C28.3556 298.55 28.3298 298.499 28.3298 298.473C27.2711 295.581 26.1866 292.715 25.0246 289.874Z" fill="#FFFDEE"/>
<path d="M83.0719 314.069C72.5107 313.398 62.4919 309.215 53.8933 302.966C51.905 307.278 50.8721 312.003 50.8979 316.755C51.8275 317.219 52.7829 317.684 53.7125 318.123C53.9449 317.813 54.1515 317.503 54.3839 317.194C54.2548 317.581 54.2031 317.942 54.1773 318.33C56.0623 319.156 57.9989 319.905 59.9614 320.525C61.2008 320.215 62.4403 319.931 63.6797 319.621C71.168 317.994 78.6047 316.316 86.0672 314.611L85.9897 314.379L83.0719 314.069Z" fill="#FFFDEE"/>
<path d="M82.0391 148.345C95.2598 126.061 88.5462 97.8119 91.4124 72.0418C93.8913 49.6543 105.33 27.0344 125.471 16.9381C150.002 4.64696 179.774 13.7362 204.047 26.5438C228.319 39.3514 251.688 56.0581 278.93 59.3891C296.773 61.584 314.642 57.7623 332.355 54.1215C335.118 51.6684 337.52 48.828 339.482 45.7036C320.374 49.6285 301.137 53.8116 281.874 51.4618C252.824 47.8984 227.906 30.0814 202.007 16.4475C176.134 2.78779 144.373 -6.89537 118.215 6.19627C96.7575 16.9639 84.5438 41.0815 81.91 64.9408C78.863 92.4152 86.0414 122.549 71.9169 146.331C71.6587 146.77 71.3747 147.183 71.1165 147.622C72.6916 150.566 74.2667 153.613 75.8677 156.763C78.1658 154.129 80.2574 151.366 82.0391 148.345Z" fill="#FFFDEE"/>
<path d="M430.194 292.818C430.168 293.179 430.168 293.541 430.142 293.902C431.795 292.431 433.628 291.191 435.617 290.236C434.171 293.128 432.725 296.02 431.304 298.912C435.333 299.661 439.257 300.564 443.105 301.701C443.647 294.445 443.157 287.137 442.408 279.83C437.605 283.393 433.448 287.809 430.194 292.818Z" fill="#FFFDEE"/>
<path d="M341.599 52.2623C362.36 48.2858 384.748 46.1942 403.804 55.3609C421.027 63.6497 432.957 79.9949 441.685 97.0114C449.483 112.195 455.344 128.85 454.854 145.918C453.873 178.763 429.781 207.245 427.405 240.012C426.631 250.703 428.206 261.444 429.342 272.135C432.182 268.365 435.462 264.879 439.102 261.909C434.377 267.538 431.278 274.484 430.142 281.715C430.22 283.135 430.271 284.529 430.323 285.923C433.37 282.283 437.656 279.675 442.304 278.668C441.091 267.125 439.361 255.583 440.213 244.066C442.769 209.13 468.462 178.737 469.495 143.723C470.037 125.544 463.762 107.779 455.448 91.5889C446.152 73.462 433.396 56.0065 415.037 47.1754C394.741 37.4148 370.83 39.6355 348.7 43.8702C346.402 44.3092 344.13 44.774 341.832 45.2388C341.677 47.5886 341.548 49.9642 341.367 52.3139C341.445 52.2881 341.522 52.2881 341.599 52.2623Z" fill="#FFFDEE"/>
<path d="M93.2717 150.592C105.537 129.934 99.314 103.751 101.948 79.8916C104.246 59.1567 114.859 38.1895 133.502 28.842C156.225 17.4546 183.829 25.8725 206.319 37.7505C228.81 49.6027 250.475 65.0957 275.703 68.1685C284.559 69.253 293.416 68.7366 302.247 67.523C303.048 67.0065 303.874 66.5159 304.752 66.1028C308.858 64.2178 313.428 63.6755 317.74 62.3586C323.137 60.7318 328.147 57.8656 332.355 54.1215C314.642 57.7623 296.799 61.584 278.93 59.3891C251.688 56.0581 228.32 39.3514 204.047 26.5438C179.775 13.7362 150.002 4.64697 125.471 16.9381C105.331 27.0344 93.8915 49.6543 91.4126 72.0418C88.5464 97.8119 95.2858 126.061 82.0393 148.345C80.2576 151.34 78.166 154.129 75.842 156.737C77.2881 159.603 78.7599 162.521 80.2317 165.491C85.3445 161.101 89.8891 156.272 93.2717 150.592Z" fill="#FFFCE7"/>
<path d="M85.9641 314.379L81.8326 301.597C72.2527 298.266 63.5766 292.043 56.7338 284.452C47.0765 273.684 40.7502 260.308 35.8957 246.674C32.1515 236.113 29.1562 224.7 31.7125 213.778C34.4755 201.9 42.661 193.482 52.4216 185.942C50.9239 183.695 49.4263 181.449 47.9803 179.228C33.3651 189.428 19.4989 199.782 15.5998 216.54C12.8627 228.315 16.0646 240.632 20.1186 252.045C25.3604 266.764 32.1773 281.198 42.6093 292.818C45.7854 296.356 49.323 299.609 53.1704 302.475C53.661 302.088 54.1517 301.701 54.6681 301.339C54.3841 301.881 54.1258 302.449 53.8676 302.992C62.4663 309.241 72.4851 313.424 83.0462 314.095L85.9641 314.379Z" fill="#FFFCE7"/>
<path d="M427.379 239.986C429.781 207.219 453.873 178.737 454.828 145.892C455.344 128.85 449.457 112.169 441.659 96.9855C432.931 79.9947 421.001 63.6237 403.778 55.3349C384.748 46.1682 362.334 48.2598 341.574 52.2363C341.496 52.2622 341.419 52.2622 341.341 52.288C341.16 54.9734 340.954 57.6331 340.747 60.2927C357.919 57.5298 375.839 56.9359 391.358 64.3984C407.316 72.0675 418.368 87.2248 426.45 102.976C433.654 117.049 439.102 132.49 438.638 148.267C437.734 178.686 415.424 205.075 413.203 235.442C411.912 253.233 417.619 271.102 415.398 288.764C415.682 289.564 415.992 290.339 416.276 291.139C416.328 285.433 417.567 279.726 419.917 274.536C418.807 279.106 419.039 283.987 420.562 288.428C422.577 282.567 425.546 277.041 429.264 272.083C428.18 261.393 426.605 250.677 427.379 239.986Z" fill="#FFFCE7"/>
<path d="M429.678 286.647C429.884 286.388 430.091 286.156 430.297 285.898C430.272 284.503 430.22 283.083 430.117 281.689C429.884 283.341 429.729 284.994 429.678 286.647Z" fill="#FFFCE7"/>
<path d="M428.645 295.323C429.109 294.806 429.6 294.341 430.117 293.877C430.142 293.515 430.168 293.154 430.168 292.792C429.652 293.644 429.135 294.471 428.645 295.323Z" fill="#FFFCE7"/>
<path d="M31.7125 213.752C29.1819 224.674 32.1514 236.087 35.8956 246.649C40.7501 260.282 47.0764 273.658 56.7338 284.426C63.5507 292.043 72.2268 298.24 81.8325 301.571L74.8865 279.984C73.5179 278.719 72.201 277.376 70.9616 275.982C62.0789 266.066 56.2432 253.775 51.776 241.226C48.3159 231.517 45.5788 221.008 47.9286 210.963C49.5037 204.146 53.0413 198.568 57.6375 193.662C55.9075 191.08 54.1516 188.498 52.4474 185.916C42.6609 193.456 34.4754 201.874 31.7125 213.752Z" fill="#FFFBDC"/>
<path d="M104.556 152.838C115.84 133.833 110.107 109.741 112.535 87.7671C114.652 68.6848 124.413 49.396 141.558 40.7973C162.474 30.3137 187.857 38.0602 208.566 48.9828C218.507 54.2246 228.242 60.2153 238.287 65.3538C242.754 64.7857 247.298 64.7599 251.74 65.328C262.172 66.6965 272.036 71.0863 280.428 77.4901C285.076 77.5675 289.698 77.2577 294.32 76.6896C296.05 72.9712 298.787 69.7177 302.221 67.4712C293.39 68.6848 284.533 69.2013 275.676 68.1167C250.449 65.0181 228.784 49.5509 206.293 37.6987C183.803 25.8465 156.225 17.4028 133.476 28.7902C114.833 38.1377 104.22 59.1049 101.922 79.8398C99.288 103.725 105.511 129.882 93.2457 150.54C89.863 156.221 85.3184 161.049 80.2057 165.439C81.471 167.995 82.7104 170.578 83.9757 173.16C92.0579 167.401 99.6495 161.101 104.556 152.838Z" fill="#FFFBDC"/>
<path d="M413.229 235.493C415.45 205.127 437.76 178.737 438.664 148.319C439.128 132.516 433.68 117.075 426.476 103.028C418.393 87.2765 407.316 72.1191 391.384 64.45C375.865 56.9875 357.945 57.5814 340.773 60.3444C340.67 61.7646 340.567 63.1848 340.438 64.605C340.308 65.9735 340.205 67.3679 340.05 68.7364C353.4 67.2646 366.931 67.8069 378.886 73.5651C393.553 80.6145 403.753 94.584 411.189 109.07C417.825 122.007 422.835 136.209 422.422 150.746C421.595 178.737 401.041 203.035 399.001 230.975C397.994 244.918 401.661 258.914 401.506 272.806C406.567 278.228 410.26 284.942 412.015 292.146C413.126 289.59 413.694 286.801 413.668 284.013C414.262 285.613 414.856 287.214 415.45 288.79C417.645 271.153 411.938 253.259 413.229 235.493Z" fill="#FFFBDC"/>
<path d="M401.222 290.855C401.325 287.808 401.17 284.761 400.757 281.766C400.422 283.806 399.983 285.794 399.44 287.783C400.189 288.686 400.809 289.719 401.222 290.855Z" fill="#FFFBDC"/>
<path d="M121.262 241.252C120.229 243.446 117.931 243.911 117.931 243.911L117.88 243.86C122.889 251.245 128.183 260.979 133.373 271.541L154.159 271.463L170.04 297.801C176.96 296.717 183.906 295.71 190.878 294.806C187.418 290.132 183.596 285.768 179.413 281.74C184.319 283.005 188.735 286.052 191.678 290.158C188.786 280.268 182.925 271.257 175.049 264.569C183.338 269.785 190.542 276.757 196.042 284.865C195.164 280.397 194.26 275.904 193.382 271.437C195.19 275.207 197.359 278.822 199.838 282.231C201.129 269.449 205.26 256.951 211.845 245.925C208.617 258.81 208.333 272.393 210.993 285.381C212.413 280.63 214.84 276.163 218.094 272.419C216.725 277.402 217.009 282.825 218.869 287.653C221.089 280.63 224.033 273.865 227.622 267.461C225.169 275.104 226.099 283.728 229.946 290.752C243.425 289.745 256.956 289.177 270.512 289.125C274.928 289.099 279.343 289.228 283.707 289.409C285.566 288.712 287.4 288.015 289.259 287.343C290.963 286.698 292.719 286.027 294.32 285.149C295.198 284.529 296.05 283.935 296.928 283.341C297.057 283.238 297.186 283.135 297.289 283.031C302.454 278.203 304.106 268.545 310.691 266.841C311.104 266.738 311.517 266.686 311.904 266.634C311.749 259.353 311.724 252.071 311.827 244.789C312.059 231.956 312.705 219.122 314.022 206.315C312.834 201.409 311.13 196.477 309.116 191.777C307.05 187.026 304.648 182.404 301.679 178.169C298.735 173.908 295.224 170.035 291.092 166.988C289 165.491 286.78 164.174 284.43 163.141C283.991 162.96 283.552 162.805 283.113 162.65C283.862 163.657 284.404 164.535 284.533 164.948C285.515 168.176 284.585 172.566 284.017 175.793C282.648 183.592 280.867 192.087 274.644 196.993C270.254 200.427 264.418 201.409 259.693 204.378C260.416 199.498 259.383 194.54 258.143 189.737C256.904 184.96 255.406 180.183 255.174 175.251C254.942 170.319 256.104 165.077 259.512 161.514C262.92 157.951 268.911 156.66 272.965 159.5C274.489 158.699 276.012 157.899 277.536 157.124C278.078 156.84 279.911 158.674 281.564 160.636C282.752 160.946 283.914 161.307 285.05 161.721C287.554 162.728 289.93 164.019 292.151 165.542C296.592 168.615 300.362 172.54 303.538 176.852C306.74 181.164 309.374 185.838 311.646 190.667C312.834 193.249 313.944 195.883 314.926 198.568C315.235 196.064 315.571 193.533 315.958 191.028H315.597C315.7 182.068 315.597 173.031 314.461 164.096C314.099 159.603 313.221 155.162 312.576 150.695C311.672 146.279 310.897 141.812 309.735 137.448C307.618 128.669 304.984 119.993 301.808 111.497C299.949 106.514 297.909 101.607 295.714 96.7788C294.862 96.5206 294.01 96.2366 293.158 95.9525C286.806 93.9126 279.421 95.3844 272.784 93.9126C261.552 91.4079 251.662 84.9524 240.972 80.666C230.282 76.3796 217.397 74.5204 207.817 80.8984C215.589 72.2223 226.693 66.9288 238.312 65.457C228.294 60.3185 218.533 54.3278 208.592 49.086C187.908 38.1634 162.5 30.4169 141.584 40.9005C124.413 49.4992 114.652 68.788 112.56 87.8703C110.133 109.845 115.866 133.911 104.581 152.941C99.6753 161.204 92.0837 167.479 84.0015 173.315C95.2598 196.683 105.769 220.749 110.262 231.181C117.905 231.749 122.14 239.367 121.262 241.252Z" fill="#FFF9C7"/>
<path d="M51.7758 241.252C56.243 253.801 62.0529 266.092 70.9614 276.008C72.2009 277.402 73.5178 278.719 74.8863 280.01L73.8535 276.808L80.877 271.773L103.91 271.67L97.687 251.296C97.687 251.296 85.4733 250.832 91.4123 242.233C91.4123 242.233 74.4732 218.58 57.6632 193.688C53.0669 198.594 49.5293 204.172 47.9542 210.989C45.5786 221.033 48.3157 231.517 51.7758 241.252Z" fill="#FFF9C7"/>
<path d="M398.975 230.975C401.015 203.036 421.57 178.763 422.396 150.747C422.835 136.209 417.8 122.007 411.163 109.07C403.727 94.5844 393.553 80.6406 378.86 73.5655C366.905 67.8072 353.4 67.2649 340.024 68.7368C339.301 75.2439 338.036 81.751 334.499 87.1735C330.186 93.7839 322.775 98.0961 314.977 99.3356C308.109 100.42 302.376 98.845 296.205 96.8567C298.529 101.505 300.672 106.256 302.66 111.084C306.146 119.477 309.116 128.101 311.543 136.906C312.86 141.27 313.789 145.737 314.874 150.179C315.674 154.672 316.707 159.113 317.25 163.658C317.895 167.686 318.334 171.74 318.67 175.82C319.315 172.85 320.013 169.906 320.787 166.963C322.491 160.636 324.505 154.362 327.191 148.294C328.921 144.42 330.935 140.625 333.362 137.061C333.466 134.298 334.576 130.967 336.384 128.953C336.564 128.617 336.797 128.282 337.055 128.024C341.057 123.97 349.966 124.641 354.614 126.758C355.208 127.017 355.801 127.326 356.473 127.352C357.196 127.378 357.867 127.068 358.539 126.836C365.046 124.512 372.431 129.521 374.832 136.002C377.234 142.484 375.865 149.74 373.619 156.273C371.992 161.075 369.9 165.723 367.421 170.139C367.628 160.817 361.663 151.676 353.039 148.113C349.217 146.538 344.827 145.892 341.522 143.568C338.707 143.568 335.557 143.026 334.137 140.754C332.459 143.517 331.013 146.434 329.696 149.404C327.165 155.291 325.203 161.463 323.602 167.686C321.975 173.935 320.736 180.287 319.728 186.665C319.599 187.491 319.47 188.292 319.367 189.118C319.393 189.738 319.393 190.383 319.419 191.003H319.083C318.36 195.961 317.792 200.944 317.327 205.928C316.088 218.839 315.545 231.801 315.39 244.764C315.339 252.226 315.416 259.715 315.649 267.177C320.684 269.32 324.609 276.344 329.283 280.475C332.975 283.729 337.623 285.278 342.116 286.905C347.332 288.79 352.47 290.881 357.583 293.128C359.055 293.128 360.527 293.128 361.999 293.231C371.114 293.773 380.229 294.316 389.37 294.858C385.212 289.849 381.055 284.813 375.736 281.069C380.565 282.438 396.135 287.421 396.083 294.342C396.109 290.933 395.567 287.499 394.483 284.271C396.419 284.917 398.175 286.13 399.466 287.705C400.034 285.743 400.473 283.729 400.783 281.689C400.215 277.351 399.156 273.064 397.581 268.985C398.976 270.147 400.267 271.412 401.506 272.729C401.635 258.914 397.968 244.893 398.975 230.975Z" fill="#FFF9C7"/>
<path d="M280.428 77.516C284.508 80.6146 288.226 84.2038 291.505 88.1546C291.247 87.664 290.989 87.1475 290.731 86.6311C291.066 87.225 291.376 87.8189 291.712 88.387C291.97 88.6968 292.228 89.0067 292.487 89.3165C291.764 85.0301 292.487 80.6146 294.32 76.6897C289.698 77.2836 285.05 77.5935 280.428 77.516Z" fill="#FFF9C7"/>
<path d="M229.972 290.7C226.099 283.677 225.195 275.052 227.648 267.409C224.033 273.813 221.089 280.604 218.894 287.602C217.009 282.773 216.751 277.351 218.12 272.367C214.866 276.111 212.439 280.578 211.019 285.33C208.359 272.341 208.643 258.733 211.871 245.874C205.286 256.9 201.181 269.397 199.864 282.179C197.385 278.797 195.216 275.182 193.408 271.386C194.286 275.853 195.19 280.346 196.068 284.813C190.568 276.705 183.364 269.759 175.075 264.517C182.95 271.179 188.786 280.191 191.704 290.107C188.76 286.001 184.319 282.954 179.439 281.689C183.622 285.717 187.443 290.107 190.904 294.754C183.932 295.658 176.986 296.665 170.065 297.75L196.739 342.008C200.225 339.168 205.183 338.393 209.03 340.614C206.397 339.09 208.721 335.166 213.394 330.363C212.826 329.975 212.361 329.485 212 328.942C211.871 328.788 211.819 328.71 211.819 328.71L213.73 321.79L227.312 301.623L254.089 296.123L255.277 297.414L257.059 299.377C258.273 298.912 259.486 298.447 260.7 298.008C268.395 295.116 276.115 292.25 283.81 289.358C279.446 289.177 275.031 289.074 270.615 289.074C256.982 289.125 243.451 289.693 229.972 290.7Z" fill="#377036"/>
<path d="M457.772 378.314C458.237 376.196 458.314 373.976 457.978 371.833C457.488 374.518 456.687 377.204 455.138 379.45C453.64 378.624 452.091 377.952 450.671 377.539C447.546 376.61 444.68 375.035 442.692 372.736C435.72 364.732 445.429 357.527 453.459 353.163C465.699 346.501 478.946 336.612 474.246 323.262C472.774 319.053 469.727 315.386 465.854 312.572C458.985 307.562 451.265 304.128 443.079 301.701C439.232 300.564 435.281 299.661 431.279 298.912C432.725 296.02 434.171 293.128 435.591 290.236C433.603 291.191 431.743 292.431 430.117 293.902C429.6 294.367 429.11 294.832 428.645 295.348C429.135 294.496 429.652 293.644 430.194 292.844C433.473 287.834 437.605 283.419 442.408 279.855C443.105 279.313 443.828 278.797 444.577 278.306C443.802 278.384 443.053 278.513 442.304 278.668C437.657 279.675 433.37 282.283 430.323 285.924C430.117 286.182 429.884 286.414 429.703 286.672C429.755 285.02 429.91 283.367 430.168 281.715C431.279 274.459 434.403 267.513 439.128 261.909C435.462 264.905 432.208 268.365 429.368 272.135C425.649 277.092 422.654 282.618 420.666 288.48C419.142 284.039 418.91 279.158 420.02 274.588C417.671 279.778 416.431 285.485 416.379 291.191C416.095 290.391 415.785 289.616 415.501 288.816C414.908 287.215 414.314 285.614 413.72 284.039C413.746 286.827 413.178 289.616 412.067 292.172C410.311 284.968 406.619 278.254 401.558 272.832C400.318 271.515 399.027 270.224 397.633 269.088C399.208 273.168 400.267 277.454 400.835 281.792C401.222 284.813 401.403 287.86 401.299 290.881C400.886 289.745 400.267 288.712 399.518 287.783C398.227 286.208 396.471 284.968 394.534 284.348C395.619 287.576 396.161 291.01 396.135 294.419C396.187 287.499 380.616 282.515 375.788 281.147C381.107 284.865 385.264 289.926 389.421 294.935C380.306 294.393 371.191 293.851 362.05 293.309C360.579 293.231 359.107 293.205 357.635 293.205C366.621 297.182 375.4 301.701 383.921 306.788C389.447 306.658 394.973 306.555 400.473 306.452C412.222 306.271 424.307 306.116 435.229 310.454C436.856 311.1 438.741 312.597 437.966 314.147C437.631 314.844 436.83 315.205 436.288 315.774C434.016 318.072 436.443 321.713 437.166 324.837C438.044 328.529 436.185 332.429 433.448 335.037C430.685 337.645 427.147 339.194 423.661 340.717C419.53 342.499 415.424 344.307 411.293 346.088C409.201 346.992 406.929 348.051 405.87 350.091C405.276 351.227 405.121 352.57 404.527 353.732C403.236 356.262 400.241 357.269 397.504 358.044C395.076 358.715 392.623 359.361 390.17 359.98C390.764 360.213 391.384 360.445 392.03 360.678C399.027 363.053 407.316 362.253 414.598 363.311C421.957 364.37 429.445 366.694 434.739 371.91C435.023 372.194 435.333 372.53 435.41 372.917C435.488 373.434 435.152 373.924 434.816 374.311C434.222 374.983 433.525 375.551 432.673 375.887C428.645 377.384 424.901 375.809 421.105 375.009C419.607 374.699 418.084 375.396 417.309 376.713C417.102 377.074 416.767 377.384 416.405 377.565C415.347 378.107 414.107 377.952 412.919 377.772C404.863 376.455 397.013 373.769 389.86 369.87C390.506 369.793 391.152 369.715 391.823 369.638C390.067 368.579 388.337 367.495 386.659 366.384C384.567 365.016 384.619 362.588 385.806 361.065C368.712 365.093 351.257 367.649 333.724 368.682C328.353 368.992 322.44 369.018 318.205 365.661C317.172 364.835 316.268 363.854 315.106 363.26C313.273 362.33 311.104 362.537 309.064 362.718C297.186 363.802 285.179 363.415 273.378 361.633C271.778 361.401 270.047 361.039 269.066 359.748C267.439 357.579 269.066 354.506 270.925 352.518C271.597 351.795 272.32 351.046 272.939 350.246C271.158 350.116 269.376 350.013 267.62 349.884C268.55 345.985 263.979 343.429 260.338 342.99C240.378 340.562 219.385 352.363 200.354 348.102L200.664 348.645C200.664 348.645 200.974 350.736 201.387 354.171C212.955 352.415 224.73 352.208 236.324 353.577C236.298 353.499 236.298 353.396 236.273 353.318C236.324 353.396 236.35 353.499 236.376 353.577C238.751 353.861 241.127 354.171 243.503 354.584C245.878 354.997 248.46 355.591 250.087 357.605C251.74 359.619 251.714 363.492 249.493 364.577C254.064 366.642 258.608 368.708 263.179 370.774C262.172 373.743 260.054 376.222 257.472 377.488C258.583 378.882 259.693 380.276 260.803 381.671C256.568 383.711 252.334 385.725 248.099 387.765C247.273 384.356 246.421 380.948 245.594 377.565C244.716 380.948 243.813 384.33 242.935 387.713C243.451 375.964 241.153 364.06 236.35 353.602C236.324 353.602 236.324 353.602 236.298 353.602C239.139 365.403 239.449 377.978 237.15 389.959C234.542 384.382 232.451 378.495 230.979 372.426C233.045 379.398 233.716 386.913 232.89 394.194C231.315 392.645 229.74 391.096 228.165 389.546C229.223 391.044 229.662 392.774 228.526 394.039C228.216 394.401 227.777 394.737 227.674 395.201C227.855 395.201 228.061 395.227 228.242 395.253C228.784 395.356 227.751 396.079 227.648 395.485C227.622 395.382 227.648 395.279 227.674 395.201C224.085 394.969 217.345 398.584 213.911 399.281C208.798 400.314 203.608 400.908 198.418 401.114C188.037 401.528 177.631 400.314 167.535 397.499L167.716 397.422C167.483 396.441 167.277 395.485 167.07 394.504V394.478C165.65 387.429 165.159 380.225 165.624 373.046C165.702 371.807 165.805 370.567 165.96 369.328C165.521 370.232 165.159 371.161 164.824 372.091C163.3 376.584 163.094 381.542 162.965 386.344C161.105 379.76 160.047 372.943 159.788 366.1C159.608 361.607 159.788 357.088 160.305 352.621C159.246 356.417 158.575 360.316 158.239 364.215C157.749 369.922 158.007 375.706 159.04 381.335C155.115 374.26 149.95 367.908 143.831 362.614C147.239 369.018 150.028 375.757 152.094 382.729C149.021 376.894 143.831 372.53 138.95 368.088C130.068 359.98 121.83 351.124 114.42 341.673C121.856 355.41 131.772 367.624 141.739 379.682C142.204 380.25 142.669 380.819 143.133 381.387C140.138 378.598 136.523 376.506 132.65 375.267C134.302 377.1 135.568 379.295 136.394 381.645C115.478 365.326 97.2223 349.471 97.2223 349.471L95.5181 344.203C82.065 345.52 68.3794 345.882 54.7972 345.21C56.1399 344.72 57.4826 344.203 58.8254 343.713C53.9709 343.351 49.1422 342.912 44.3135 342.447C33.8815 341.389 34.7853 331.99 45.3464 331.706C47.0506 331.654 48.8065 331.576 50.5882 331.473C63.6024 330.724 76.4358 327.213 89.0885 324.217L86.0415 314.766C78.6048 316.471 71.1423 318.149 63.654 319.776C62.4146 320.06 61.1751 320.37 59.9357 320.68C58.3348 321.067 56.7338 321.454 55.107 321.842C54.539 320.705 54.1 319.595 54.1516 318.459C54.1774 318.072 54.2291 317.71 54.3582 317.323C54.1258 317.633 53.9192 317.943 53.6868 318.252C52.8605 319.389 52.0601 320.525 51.2338 321.661C50.9755 320.086 50.8723 318.485 50.8464 316.884C50.8206 312.133 51.8535 307.407 53.8418 303.095C54.1 302.527 54.3582 301.985 54.6422 301.442C54.1258 301.804 53.6352 302.191 53.1446 302.579C49.5295 305.419 46.5084 309.008 44.3393 313.062C43.0741 315.386 42.067 317.865 41.3957 320.447C40.8276 317.168 40.5952 313.837 40.6985 310.506C40.7243 309.576 40.7759 308.647 40.8534 307.743C40.4661 308.414 40.0788 309.086 39.7173 309.757C37.5999 313.759 35.9989 318.046 35.0177 322.461C33.2876 314.431 31.0411 306.504 28.304 298.757C28.2782 298.705 28.2782 298.654 28.2524 298.602C28.2524 298.654 28.2782 298.705 28.2782 298.731C30.7571 307.511 31.0153 316.91 28.9238 325.792C26.1608 321.015 23.8627 315.954 22.081 310.712C22.2876 314.405 22.52 318.072 22.7265 321.764C19.0857 315.567 16.6068 308.673 15.4706 301.546C15.5481 310.403 16.426 319.234 18.1303 327.91C16.5035 327.032 15.1866 325.534 14.541 323.778C15.2382 326.412 15.9612 329.098 17.149 331.525C13.818 332.764 10.771 334.417 8.60202 337.102C6.82032 339.323 6.07149 342.112 6.87196 344.72C8.18887 348.98 12.5786 350.168 16.6326 351.201C28.9754 354.3 41.3182 357.398 53.661 360.497C56.553 361.22 59.5484 361.995 61.6916 363.828C63.8348 365.661 64.7385 368.863 62.8277 370.877C60.1681 373.692 53.0929 374.131 54.2033 377.617C57.6117 378.598 61.1751 379.682 63.1376 382.471C64.093 383.814 64.4029 385.518 63.7315 386.99C62.6212 389.443 59.7808 389.856 57.2244 390.192C50.4075 391.096 43.4098 392.516 36.9801 394.788C36.0764 390.295 36.2571 385.596 37.6773 381.232C33.236 383.659 29.9566 388.126 28.9754 393.11C28.1491 388.074 27.9167 382.936 28.2782 377.849C25.8251 383.168 24.5599 389.03 24.6632 394.891C23.1655 385.441 19.2664 376.377 13.4049 368.786C18.027 377.333 20.8674 386.809 21.7453 396.492C19.912 388.901 16.426 381.722 11.649 375.551C16.3744 383.504 20.0152 392.077 22.4683 400.985C21.0481 399.694 19.912 398.042 19.2148 396.234C19.5505 399.41 20.196 402.638 21.4871 405.53C20.4542 409.016 21.6937 412.941 25.2829 415.394C40.3628 425.671 60.0132 430.629 79.0438 434.192C133.115 444.314 189.096 446.742 244.071 441.345C259.925 439.796 276.296 437.394 289.388 429.441C293.674 426.833 297.548 423.683 302.247 421.72C308.47 419.112 315.597 418.854 322.491 418.544C350.379 417.279 378.189 414.723 405.767 410.823C424.255 408.215 443.544 404.626 457.668 393.936C459.218 392.774 460.715 391.457 461.387 389.779C461.722 388.927 461.8 388.1 461.697 387.274C462.265 385.88 462.497 384.382 462.859 382.91C463.685 379.502 465.415 376.3 467.816 373.743C466.138 374.673 464.589 375.861 463.246 377.255C465.337 371.626 468.617 366.436 472.8 362.124C466.396 365.739 461.051 371.523 457.772 378.314Z" fill="#377036"/>
<path d="M28.3041 298.473C27.452 295.529 26.3675 292.637 25.0248 289.874C26.1868 292.715 27.2713 295.581 28.3041 298.473Z" fill="#377036"/>
<path d="M203.479 392.103C201.878 393.161 200.329 394.349 198.882 395.614C198.882 395.614 198.857 395.614 198.857 395.64C195.5 394.685 191.962 394.143 188.244 394.143C187.624 394.143 186.979 394.168 186.359 394.194C185.946 394.22 185.533 394.246 185.119 394.298C184.138 394.375 183.131 394.504 182.15 394.685C181.195 394.84 180.239 395.046 179.284 395.279C179.258 395.279 179.232 395.305 179.206 395.305C178.328 395.537 177.45 395.795 176.572 396.079C176.418 396.131 176.263 396.183 176.108 396.234C175.256 396.518 174.403 396.828 173.577 397.19C173.577 397.19 173.577 397.19 173.551 397.19C173.319 397.06 173.087 396.957 172.88 396.828C172.441 396.596 172.002 396.363 171.563 396.157C171.227 396.002 170.892 395.821 170.53 395.666C169.885 395.382 169.265 395.124 168.594 394.866C168.284 394.737 167.948 394.633 167.638 394.53C167.432 394.452 167.225 394.401 167.018 394.323C167.225 395.305 167.432 396.286 167.664 397.241L167.483 397.319C177.554 400.133 187.986 401.347 198.366 400.934C203.556 400.727 208.746 400.133 213.859 399.1C217.319 398.403 224.033 394.788 227.622 395.021C227.725 394.582 228.139 394.22 228.474 393.859C229.61 392.593 229.146 390.863 228.113 389.366C229.688 390.915 231.263 392.464 232.838 394.014C233.664 386.706 232.993 379.218 230.927 372.246C232.425 378.314 234.491 384.201 237.099 389.779C239.371 377.823 239.087 365.248 236.247 353.422C224.627 352.053 212.878 352.26 201.31 354.016C202.343 362.356 203.969 378.546 203.479 392.103Z" fill="#30622E"/>
<path d="M236.221 353.215C236.247 353.292 236.247 353.396 236.273 353.473C236.298 353.473 236.298 353.473 236.324 353.473C236.298 353.396 236.273 353.292 236.221 353.215Z" fill="#30622E"/>
<path d="M242.909 387.584C243.787 384.201 244.69 380.818 245.568 377.436C246.395 380.844 247.247 384.253 248.073 387.635C252.308 385.595 256.543 383.581 260.777 381.541C259.667 380.147 258.557 378.753 257.446 377.358C260.029 376.093 262.146 373.614 263.153 370.645C258.583 368.579 254.038 366.513 249.467 364.447C251.688 363.363 251.714 359.49 250.061 357.476C248.409 355.461 245.852 354.893 243.477 354.454C241.101 354.041 238.751 353.706 236.35 353.447C241.127 363.931 243.425 375.809 242.909 387.584Z" fill="#30622E"/>
<path d="M228.216 395.124C228.035 395.098 227.855 395.072 227.648 395.072C227.622 395.175 227.596 395.253 227.622 395.356C227.726 395.95 228.758 395.227 228.216 395.124Z" fill="#30622E"/>
<path d="M390.093 310.583C394.353 313.295 398.562 316.161 403.133 318.227C409.64 321.144 418.703 326.67 415.321 333.539C408.091 338.677 398.588 336.508 390.274 338.961C387.485 339.788 384.877 341.131 382.32 342.654L386.039 348.593C386.039 348.593 386.013 348.696 385.935 348.877C382.863 359.025 349.914 355.746 349.914 355.746L333.879 357.734L310.226 352.724C297.754 351.898 285.308 351.046 272.836 350.22C272.216 351.02 271.493 351.769 270.822 352.492C268.989 354.48 267.336 357.553 268.963 359.722C269.944 361.013 271.674 361.375 273.275 361.607C285.076 363.415 297.083 363.776 308.961 362.692C311.001 362.511 313.17 362.304 315.003 363.234C316.165 363.828 317.069 364.835 318.102 365.635C322.336 368.966 328.224 368.966 333.621 368.657C351.154 367.624 368.609 365.067 385.703 361.039C386.607 359.877 388.156 359.206 389.912 359.929C389.964 359.955 390.041 359.98 390.093 360.006C392.546 359.386 394.999 358.741 397.426 358.07C400.163 357.321 403.159 356.288 404.45 353.757C405.044 352.595 405.173 351.253 405.792 350.116C406.851 348.102 409.098 347.044 411.215 346.114C415.346 344.332 419.452 342.525 423.584 340.743C427.07 339.22 430.607 337.67 433.37 335.062C436.133 332.454 437.966 328.555 437.088 324.863C436.34 321.738 433.938 318.072 436.21 315.799C436.753 315.231 437.553 314.87 437.889 314.173C438.638 312.597 436.753 311.1 435.152 310.48C424.229 306.168 412.119 306.297 400.396 306.478C394.896 306.555 389.37 306.658 383.844 306.813C385.935 308.001 388.027 309.266 390.093 310.583Z" fill="#30622E"/>
<path d="M211.923 328.968C211.871 328.891 211.793 328.813 211.742 328.736C211.768 328.736 211.819 328.813 211.923 328.968Z" fill="#918B80"/>
<path d="M246.627 303.302L254.038 296.123L227.26 301.623L225.995 307.149L230.772 308.053L221.244 317.013L228.397 317.374C231.753 314.792 235.11 312.313 238.209 310.119L232.683 308.208L246.627 303.302Z" fill="#918B80"/>
<path d="M256.749 299.48C256.827 299.454 256.904 299.428 257.007 299.377L255.226 297.414L256.749 299.48Z" fill="#ABA497"/>
<path d="M254.012 296.123L246.601 303.302L232.683 308.208L238.209 310.119C243.529 306.323 247.97 303.405 249.855 302.346L255.2 297.414L254.012 296.123Z" fill="#ABA497"/>
<path d="M230.772 308.053L225.995 307.149L227.261 301.623L213.678 321.79L211.768 328.71C211.819 328.788 211.897 328.865 211.948 328.943C212.31 329.511 212.8 329.976 213.343 330.363C217.242 326.335 222.793 321.713 228.423 317.349L221.27 316.987L230.772 308.053Z" fill="#827D72"/>
<path d="M255.2 297.44L249.855 302.372C250.165 302.191 250.423 302.062 250.578 301.985C252.618 301.107 254.658 300.28 256.723 299.506L255.2 297.44Z" fill="#BBB4A6"/>
<path d="M403.133 318.227C398.562 316.187 394.353 313.32 390.093 310.583C388.027 309.266 385.935 307.975 383.844 306.736C375.323 301.649 366.543 297.13 357.557 293.154C352.47 290.907 347.306 288.816 342.09 286.931C337.597 285.304 332.949 283.754 329.257 280.501C324.583 276.369 320.658 269.346 315.623 267.203C315.752 271.231 315.907 275.233 316.113 279.236C325.358 283.78 333.182 297.078 339.844 304.541C340.696 305.496 341.599 306.581 341.599 307.846C341.599 309.886 339.43 311.151 337.545 311.952C332.639 314.069 327.759 316.187 322.853 318.33C320.555 319.311 317.818 321.532 319.057 323.701C322.362 323.778 325.667 323.881 328.998 323.959C326.39 324.527 328.482 328.684 331.064 329.304C332.562 329.666 334.395 329.95 335.712 330.647L336.228 329.588L363.445 327.135L382.269 342.525L382.372 342.68C384.903 341.156 387.511 339.814 390.325 338.987C398.614 336.534 408.142 338.729 415.372 333.565C418.703 326.67 409.666 321.144 403.133 318.227Z" fill="#4C2612"/>
<path d="M305.242 278.538C304.829 278.074 304.545 277.454 304.519 276.783C304.468 275.414 305.733 274.226 307.076 274.226C308.522 274.226 309.58 275.388 309.632 276.783C309.658 277.092 309.58 277.377 309.477 277.661C310.433 277.635 311.388 277.712 312.318 277.893C312.163 274.123 312.034 270.353 311.956 266.557C311.569 266.583 311.156 266.66 310.742 266.764C304.158 268.468 302.505 278.125 297.341 282.954C297.212 283.057 297.109 283.161 296.979 283.264C299.123 281.844 301.292 280.501 303.538 279.287C304.08 279.003 304.674 278.771 305.242 278.538Z" fill="#4C2612"/>
<path d="M308.496 352.285L322.491 343.609L330.367 341.724L332.149 338.032C330.29 338.703 328.224 339.065 326.313 339.271C315.545 340.407 304.803 341.569 294.036 342.706C290.55 343.067 286.909 343.429 283.63 342.215C280.35 341.001 277.536 337.696 278.13 334.236C259.254 338.626 240.042 341.569 220.728 343.041C219.385 343.145 217.939 343.196 216.648 342.912C216.183 343.351 215.538 343.635 214.866 343.635C213.446 343.635 212.361 342.473 212.31 341.079C212.284 340.511 212.491 339.994 212.826 339.555C212.129 336.431 215.408 332.713 218.455 330.621C232.064 321.273 246.395 312.959 261.294 305.806C261.268 305.703 261.242 305.6 261.242 305.471C261.19 304.102 262.456 302.914 263.798 302.914C264.547 302.914 265.193 303.25 265.658 303.74C266.329 303.431 266.975 303.121 267.646 302.811C277.742 298.215 285.85 291.088 294.346 285.046C292.719 285.949 290.989 286.595 289.285 287.24C287.425 287.938 285.592 288.635 283.733 289.306C276.038 292.198 268.317 295.064 260.622 297.956C259.409 298.421 258.195 298.86 256.982 299.325C256.904 299.351 256.827 299.377 256.723 299.428C254.658 300.229 252.618 301.029 250.578 301.907C250.423 301.985 250.165 302.114 249.855 302.294C247.97 303.379 243.528 306.297 238.209 310.067C235.136 312.262 231.754 314.741 228.397 317.323C222.768 321.661 217.216 326.309 213.317 330.337C208.643 335.14 206.319 339.065 208.953 340.588C205.106 338.368 200.148 339.116 196.662 341.983L200.277 347.973C219.308 352.234 240.275 340.407 260.261 342.86C263.902 343.299 268.472 345.856 267.543 349.755C269.324 349.884 271.106 349.987 272.862 350.116C285.334 350.943 297.78 351.795 310.252 352.621L308.496 352.285ZM246.291 307.924C246.24 306.555 247.505 305.367 248.848 305.367C250.294 305.367 251.352 306.529 251.404 307.924C251.456 309.292 250.19 310.48 248.848 310.48C247.402 310.48 246.343 309.318 246.291 307.924ZM204.357 346.889C202.937 346.889 201.852 345.727 201.8 344.332C201.749 342.964 203.014 341.776 204.357 341.776C205.803 341.776 206.861 342.938 206.913 344.332C206.965 345.701 205.699 346.889 204.357 346.889ZM273.507 338.135C274.953 338.135 276.012 339.297 276.064 340.691C276.115 342.06 274.85 343.248 273.507 343.248C272.087 343.248 271.003 342.086 270.951 340.691C270.874 339.297 272.165 338.135 273.507 338.135Z" fill="#4C2612"/>
<path d="M339.844 304.515C333.182 297.053 325.383 283.754 316.113 279.21C316.139 279.675 316.165 280.139 316.191 280.604C314.951 280.372 313.686 280.217 312.395 280.088C312.369 279.339 312.343 278.616 312.318 277.867C311.388 277.686 310.433 277.609 309.477 277.635C309.116 278.616 308.109 279.313 307.076 279.313C306.327 279.313 305.707 279.003 305.242 278.513C304.674 278.745 304.106 278.977 303.512 279.287C301.266 280.475 299.097 281.818 296.954 283.264C296.076 283.858 295.198 284.452 294.346 285.071C285.825 291.114 277.742 298.24 267.646 302.837C266.975 303.147 266.329 303.456 265.658 303.766C266.071 304.231 266.329 304.825 266.355 305.471C278.052 299.067 287.658 291.501 298.555 283.754C302.092 288.067 295.017 315.67 291.918 315.722C296.825 315.644 301.731 316.6 306.224 318.536C304.984 322.539 299.691 323.081 295.534 323.494C291.376 323.907 286.134 326.722 287.348 330.75C286.186 327.884 283.036 326.257 279.963 325.999C276.89 325.741 273.843 326.644 270.9 327.522C267.569 328.504 264.238 329.485 260.907 330.492C261.01 330.776 261.087 331.06 261.113 331.396C261.165 332.764 259.899 333.952 258.557 333.952C257.317 333.952 256.362 333.074 256.078 331.938C249.442 333.9 242.831 335.863 236.195 337.825C233.665 338.574 230.798 339.271 228.294 338.858C228.035 339.968 226.951 340.821 225.815 340.821C224.369 340.821 223.31 339.659 223.258 338.264C223.233 337.929 223.31 337.593 223.439 337.283C222.639 336.844 222.096 335.992 222.045 335.011C221.993 333.642 223.258 332.454 224.601 332.454C224.937 332.454 225.272 332.532 225.557 332.661C234.594 320.68 248.46 314.457 261.578 308.001C261.836 307.872 262.094 307.743 262.378 307.588C261.81 307.175 261.423 306.555 261.32 305.832C246.446 312.985 232.115 321.299 218.481 330.647C215.434 332.738 212.181 336.457 212.852 339.581C213.343 338.961 214.092 338.548 214.892 338.548C216.338 338.548 217.397 339.71 217.448 341.105C217.474 341.802 217.164 342.447 216.674 342.938C217.991 343.196 219.437 343.17 220.754 343.067C240.068 341.569 259.28 338.626 278.155 334.262C277.562 337.722 280.376 341.027 283.655 342.241C286.935 343.454 290.576 343.093 294.062 342.731C304.829 341.595 315.571 340.433 326.339 339.297C328.25 339.091 330.315 338.729 332.175 338.058L335.738 330.647C334.421 329.95 332.588 329.666 331.09 329.304C328.508 328.684 326.416 324.527 329.024 323.959C325.719 323.882 322.414 323.778 319.083 323.701C317.844 321.532 320.606 319.337 322.879 318.33C327.785 316.212 332.665 314.095 337.571 311.952C339.456 311.151 341.625 309.886 341.625 307.846C341.6 306.555 340.696 305.471 339.844 304.515Z" fill="#794125"/>
<path d="M291.479 88.1545C291.557 88.232 291.609 88.3095 291.686 88.4127C291.35 87.8188 291.041 87.2249 290.705 86.6569C290.989 87.1217 291.221 87.6381 291.479 88.1545Z" fill="#377036"/>
<path d="M309.735 137.371C310.897 141.735 311.646 146.202 312.576 150.618C313.221 155.085 314.099 159.526 314.461 164.019C315.597 172.953 315.7 181.991 315.597 190.951H315.958C315.571 193.456 315.235 195.986 314.925 198.491C313.944 195.806 312.86 193.198 311.646 190.59C309.374 185.761 306.74 181.087 303.538 176.775C300.362 172.463 296.592 168.538 292.151 165.465C289.93 163.942 287.554 162.651 285.05 161.643C283.913 161.204 282.751 160.843 281.564 160.559C282.132 161.23 282.674 161.928 283.139 162.573C283.578 162.728 284.017 162.883 284.456 163.064C286.805 164.097 289.026 165.388 291.118 166.911C295.249 169.984 298.761 173.857 301.705 178.092C304.674 182.327 307.076 186.949 309.141 191.7C311.155 196.4 312.86 201.332 314.047 206.238C312.731 219.019 312.111 231.879 311.853 244.712C311.749 251.994 311.775 259.276 311.93 266.557C312.008 270.327 312.137 274.097 312.292 277.893C312.317 278.642 312.343 279.365 312.369 280.114C313.66 280.217 314.925 280.398 316.165 280.63C316.139 280.165 316.113 279.701 316.087 279.236C315.881 275.233 315.7 271.231 315.597 267.203C315.364 259.74 315.287 252.252 315.339 244.79C315.493 231.827 316.01 218.839 317.275 205.954C317.74 200.97 318.334 195.986 319.031 191.029H319.367C319.341 190.409 319.341 189.763 319.315 189.144C319.444 188.317 319.547 187.517 319.677 186.691C320.684 180.313 321.923 173.96 323.55 167.712C325.177 161.463 327.113 155.317 329.644 149.43C330.935 146.46 332.407 143.542 334.085 140.779C335.505 143.052 338.681 143.594 341.47 143.594C340.954 143.233 340.463 142.845 340.024 142.406C337.339 139.772 334.214 132.749 336.332 128.979C334.55 130.993 333.414 134.324 333.31 137.087C330.883 140.625 328.869 144.42 327.139 148.319C324.479 154.362 322.44 160.636 320.735 166.989C319.935 169.932 319.238 172.876 318.618 175.845C318.308 171.766 317.869 167.712 317.198 163.683C316.655 159.139 315.623 154.672 314.822 150.204C313.738 145.763 312.808 141.296 311.491 136.932C309.064 128.153 306.094 119.528 302.608 111.11C300.62 106.307 298.477 101.556 296.153 96.8825C295.972 96.8308 295.791 96.7792 295.637 96.7275C297.857 101.556 299.897 106.488 301.73 111.446C304.984 119.915 307.618 128.592 309.735 137.371Z" fill="#377036"/>
<path d="M277.562 157.047C276.038 157.848 274.515 158.648 272.991 159.423C268.963 156.582 262.972 157.873 259.538 161.437C256.13 165 254.942 170.242 255.2 175.174C255.432 180.106 256.93 184.883 258.169 189.66C259.409 194.437 260.442 199.395 259.719 204.301C264.444 201.331 270.28 200.35 274.67 196.916C280.893 192.036 282.674 183.514 284.043 175.716C284.611 172.514 285.541 168.099 284.559 164.871C284.43 164.458 283.862 163.58 283.139 162.573C282.674 161.927 282.132 161.23 281.564 160.559C279.937 158.596 278.104 156.763 277.562 157.047ZM282.958 176.749C279.989 175.045 278.414 171.688 277.019 168.538C277.458 172.979 278.982 177.343 281.435 181.087C278.698 179.719 276.374 177.472 274.928 174.761C274.799 176.801 275.109 178.841 275.857 180.726C276.864 183.308 278.724 185.812 278.259 188.55C278.052 189.867 277.303 191.054 276.451 192.113C274.024 195.031 270.564 197.071 266.846 197.768C268.679 196.58 269.763 194.489 270.254 192.371C270.745 190.254 270.667 188.033 270.616 185.864C270.486 181.629 271.958 171.172 269.17 165.362L268.524 166.11C268.911 167.143 269.092 168.228 269.066 169.132C268.885 174.838 268.059 181.061 267.543 186.82C267 193.017 264.625 196.942 262.404 202.442C264.108 198.207 263.05 193.378 261.397 189.118C259.745 184.857 257.524 180.751 256.878 176.233C256.259 171.817 257.033 160.791 263.592 161.282C266.329 161.488 268.085 163.038 269.17 165.31L270.848 163.296C274.592 162.625 278.336 161.979 282.08 161.308C284.301 166.162 284.637 171.765 282.958 176.749Z" fill="#2B8736"/>
<path d="M263.592 161.359C257.033 160.869 256.258 171.895 256.878 176.31C257.524 180.829 259.744 184.935 261.397 189.195C263.05 193.456 264.108 198.284 262.404 202.519C264.625 197.019 267 193.094 267.543 186.897C268.033 181.139 268.885 174.89 269.066 169.209C269.092 168.28 268.911 167.221 268.524 166.188L269.169 165.439C268.059 163.141 266.329 161.566 263.592 161.359Z" fill="#289B38"/>
<path d="M270.848 163.373L269.169 165.388C271.984 171.197 270.512 181.629 270.615 185.89C270.667 188.059 270.745 190.28 270.254 192.397C269.763 194.515 268.653 196.58 266.845 197.794C270.59 197.097 274.05 195.057 276.451 192.139C277.303 191.106 278.052 189.918 278.259 188.575C278.698 185.838 276.864 183.334 275.857 180.752C275.108 178.867 274.799 176.801 274.928 174.787C276.374 177.498 278.672 179.719 281.435 181.113C279.008 177.369 277.484 173.031 277.019 168.564C278.414 171.714 279.963 175.071 282.958 176.775C284.637 171.791 284.301 166.162 282.08 161.411C278.336 162.057 274.592 162.728 270.848 163.373Z" fill="#289B38"/>
<path d="M339.456 45.7036C337.494 48.828 335.092 51.6684 332.329 54.1215C328.12 57.8656 323.111 60.7318 317.714 62.3586C313.402 63.6497 308.832 64.2178 304.726 66.1028C303.848 66.5159 303.022 66.9807 302.221 67.5229C298.787 69.7436 296.076 72.9972 294.32 76.7413C292.486 80.6662 291.738 85.0818 292.486 89.3682C292.228 89.0583 291.97 88.7484 291.712 88.4386C291.634 88.3611 291.583 88.2578 291.505 88.1804C288.226 84.2296 284.507 80.6662 280.428 77.5418C272.036 71.138 262.172 66.7483 251.74 65.3797C247.298 64.7858 242.754 64.8375 238.287 65.4056C226.693 66.9032 215.589 72.1709 207.791 80.847C217.371 74.4432 230.282 76.3282 240.946 80.6146C251.636 84.901 261.526 91.3823 272.759 93.8612C279.395 95.333 286.78 93.887 293.132 95.9011C294.01 96.1851 294.862 96.4433 295.688 96.7274C295.869 96.779 296.05 96.8307 296.205 96.8823C302.402 98.8448 308.134 100.446 314.977 99.3612C322.775 98.1217 330.186 93.8095 334.498 87.1991C338.036 81.7507 339.301 75.2695 340.024 68.7624C340.179 67.368 340.308 65.9995 340.412 64.6309C340.541 63.2107 340.618 61.7905 340.747 60.3703C340.954 57.7107 341.16 55.0252 341.341 52.3656C341.496 50.0158 341.651 47.6402 341.806 45.2904C341.909 43.7928 341.987 42.3209 342.09 40.8232C341.367 42.4758 340.463 44.1284 339.456 45.7036Z" fill="#2B8736"/>
<path d="M331.167 57.117C327.113 59.8283 322.388 61.3776 317.74 62.8236C316.243 63.2884 314.719 63.7532 313.428 64.6828C309.684 67.394 309.426 72.765 309.555 77.3871C308.109 74.1593 307.902 70.3894 309.012 67.0325C301.653 68.3753 296.566 76.9739 298.942 84.0749C298.322 82.1899 296.411 80.3307 295.688 78.2908C293.984 80.7955 291.867 90.2979 297.806 88.1031C299.665 87.4059 302.015 84.0749 303.667 82.8096C305.991 81.0279 308.47 79.427 310.975 77.9293C317.508 74.0302 324.402 70.5701 330.031 65.4832C335.686 60.3963 340.024 53.1921 339.56 45.6005C338.656 50.3775 335.247 54.4057 331.167 57.117Z" fill="#289B38"/>
<path d="M276.503 85.4692C268.007 81.8541 259.512 78.2649 251.017 74.6499C246.859 72.894 242.65 71.1123 238.183 70.5442C230.153 69.5113 222.2 72.455 214.66 75.4245C224.059 73.9785 233.871 75.4245 242.47 79.4785C245.981 81.1569 249.338 83.2485 253.031 84.4621C258.195 86.1406 263.928 85.934 268.989 83.9199C267.414 86.3988 264.935 88.3096 262.12 89.1617C268.24 92.6993 276.245 92.7251 282.39 89.2133C282.364 90.9176 281.073 92.5443 279.395 92.9058C280.944 92.88 289.362 93.7838 288.768 90.8659C288.432 89.2133 278.259 86.218 276.503 85.4692Z" fill="#289B38"/>
<path d="M340.076 142.38C340.541 142.819 341.006 143.207 341.522 143.568C344.853 145.892 349.217 146.538 353.039 148.113C361.637 151.676 367.628 160.817 367.421 170.139C369.9 165.723 371.992 161.075 373.619 156.272C375.839 149.739 377.234 142.458 374.832 136.002C372.431 129.521 365.046 124.512 358.539 126.836C357.867 127.068 357.196 127.378 356.473 127.352C355.827 127.326 355.208 127.016 354.614 126.758C349.966 124.641 341.057 123.969 337.055 128.023C336.771 128.307 336.564 128.617 336.384 128.953C334.266 132.749 337.391 139.746 340.076 142.38ZM364.581 127.455C368.299 128.307 369.539 131.922 371.811 134.35C369.978 132.387 366.905 131.69 364.4 132.671C368.712 133.704 373.283 136.054 374.6 140.289C375.349 142.638 374.935 145.169 374.445 147.596C373.412 152.657 371.94 157.667 370.081 162.495C371.295 159.009 370.417 155.162 369.539 151.547C368.557 147.545 367.55 143.439 365.459 139.824C363.935 137.19 359.52 134.401 359.339 131.354C359.158 128.307 361.999 126.836 364.581 127.455ZM350.095 127.559C352.29 128.049 354.123 129.495 355.802 130.993C363.238 137.681 368.971 147.054 368.738 157.047C366.672 152.502 363.91 147.984 359.597 145.505C356.266 143.594 352.367 143.103 348.675 142.045C345.886 141.244 340.799 139.411 339.869 136.235C338.862 132.878 343.639 128.411 345.447 125.829C346.402 127.249 348.442 127.197 350.095 127.559Z" fill="#2B8736"/>
<path d="M369.539 151.547C370.417 155.136 371.32 158.984 370.081 162.495C371.94 157.667 373.412 152.683 374.445 147.596C374.935 145.195 375.323 142.638 374.6 140.289C373.283 136.054 368.712 133.704 364.4 132.671C366.905 131.716 369.978 132.413 371.811 134.35C369.513 131.922 368.299 128.307 364.581 127.455C361.999 126.861 359.184 128.307 359.365 131.354C359.546 134.401 363.961 137.164 365.485 139.824C367.55 143.413 368.532 147.544 369.539 151.547Z" fill="#289B38"/>
<path d="M339.844 136.26C340.799 139.436 345.86 141.296 348.649 142.07C352.341 143.129 356.24 143.62 359.571 145.53C363.909 148.009 366.672 152.502 368.712 157.073C368.945 147.08 363.212 137.706 355.776 131.018C354.097 129.521 352.264 128.075 350.069 127.584C348.416 127.197 346.376 127.274 345.395 125.854C343.614 128.436 338.862 132.903 339.844 136.26Z" fill="#289B38"/>
<path d="M317.585 76.07C311.414 78.7554 302.041 82.2156 299.045 88.8518C295.379 96.9598 306.249 97.657 311.75 97.0889C317.766 96.4692 323.498 93.9903 328.456 90.556C330.29 89.2907 332.045 87.8705 333.362 86.0888C335.506 83.1968 336.332 79.5301 336.952 75.9925C337.804 71.0089 338.346 65.9737 338.553 60.9126C334.344 68.6333 325.642 72.584 317.585 76.07Z" fill="#289B38"/>
<path d="M386.09 348.567C386.065 348.67 386.013 348.748 385.987 348.851C386.065 348.67 386.09 348.567 386.09 348.567Z" fill="#918B80"/>
<path d="M358.358 352.285L360.139 347.457L338.01 345.236L330.367 341.724L322.491 343.609L335.454 347.457L349.966 355.694L353.787 348.567H357.841L349.966 355.694L358.358 352.285Z" fill="#918B80"/>
<path d="M360.139 334.959L348.184 343.609L361.921 344.306L373.618 340.097L361.921 334.262L366.233 332.015L363.445 327.083L336.229 329.536L345.369 334.262L360.139 334.959Z" fill="#918B80"/>
<path d="M330.367 341.724L338.01 345.236L348.184 343.609L360.14 334.959L345.395 334.262L336.229 329.536L335.712 330.595L332.149 338.006L330.367 341.724ZM343.356 334.959L338.785 343.609L331.916 340.846L335.48 331.137L343.356 334.959Z" fill="#ABA497"/>
<path d="M361.921 334.262L373.619 340.098L361.921 344.281L348.184 343.609L338.01 345.236L360.14 347.431L358.358 352.285L349.966 355.694C349.966 355.694 382.914 358.973 385.987 348.825C386.013 348.722 386.065 348.645 386.091 348.541L382.372 342.602L382.269 342.447L363.445 327.058L366.234 331.99L361.921 334.262Z" fill="#827D72"/>
<path d="M357.841 348.567H353.787L349.966 355.694L357.841 348.567Z" fill="#ABA497"/>
<path d="M327.578 350.814L335.454 347.457L322.491 343.609L308.496 352.285L323.499 345.236L328.585 347.457L324.764 348.567L321.975 353.86L308.496 352.285L310.278 352.673L333.931 357.682L327.578 350.814Z" fill="#ABA497"/>
<path d="M335.454 347.457L327.578 350.814L333.93 357.682L349.966 355.694L335.454 347.457Z" fill="#827D72"/>
<path d="M331.89 340.846L338.759 343.609L343.355 334.959L335.454 331.137L331.89 340.846Z" fill="#BBB4A6"/>
<path d="M321.975 353.861L324.764 348.567L328.585 347.457L323.499 345.236L308.496 352.285L321.975 353.861Z" fill="#BBB4A6"/>
<path d="M346.299 296.381C345.473 296.381 345.473 297.672 346.299 297.672C347.125 297.647 347.125 296.381 346.299 296.381Z" fill="#794125"/>
<path d="M347.1 311.461C349.578 311.461 349.578 307.614 347.1 307.614C344.621 307.64 344.621 311.461 347.1 311.461Z" fill="#794125"/>
<path d="M368.532 314.508C366.053 314.508 366.053 318.33 368.532 318.33C371.01 318.33 371.01 314.508 368.532 314.508Z" fill="#794125"/>
<path d="M350.74 318.149C348.262 318.149 348.262 321.971 350.74 321.971C353.193 321.971 353.219 318.149 350.74 318.149Z" fill="#794125"/>
<path d="M360.837 308.233C363.316 308.233 363.316 304.386 360.837 304.386C358.384 304.386 358.384 308.233 360.837 308.233Z" fill="#794125"/>
<path d="M330.935 318.536C328.456 318.536 328.456 322.384 330.935 322.384C333.388 322.384 333.388 318.536 330.935 318.536Z" fill="#794125"/>
<path d="M289.672 302.165C292.151 302.165 292.151 298.318 289.672 298.318C287.219 298.318 287.219 302.165 289.672 302.165Z" fill="#794125"/>
<path d="M265.813 314.689C268.292 314.689 268.292 310.867 265.813 310.867C263.36 310.867 263.36 314.689 265.813 314.689Z" fill="#794125"/>
<path d="M280.376 309.654C277.897 309.654 277.897 313.475 280.376 313.475C282.855 313.475 282.855 309.654 280.376 309.654Z" fill="#794125"/>
<path d="M250.061 326.025C252.54 326.025 252.54 322.177 250.061 322.177C247.582 322.177 247.582 326.025 250.061 326.025Z" fill="#794125"/>
<path d="M320.813 294.755C319.987 294.755 319.987 296.046 320.813 296.046C321.639 296.046 321.639 294.755 320.813 294.755Z" fill="#8C4A2C"/>
<path d="M296.54 333.668C295.198 333.668 293.932 334.856 293.984 336.224C294.036 337.619 295.12 338.781 296.54 338.781C297.883 338.781 299.149 337.593 299.097 336.224C299.045 334.856 297.987 333.668 296.54 333.668Z" fill="#8C4A2C"/>
<path d="M314.616 335.011C314.667 336.405 315.726 337.567 317.172 337.567C318.515 337.567 319.78 336.379 319.729 335.011C319.677 333.616 318.592 332.454 317.172 332.454C315.829 332.454 314.564 333.642 314.616 335.011Z" fill="#8C4A2C"/>
<path d="M308.16 294.186C308.212 295.581 309.297 296.743 310.717 296.743C312.059 296.743 313.325 295.555 313.273 294.186C313.221 292.792 312.137 291.63 310.717 291.63C309.374 291.63 308.083 292.792 308.16 294.186Z" fill="#8C4A2C"/>
<path d="M349.114 298.912C347.771 298.912 346.506 300.1 346.557 301.468C346.609 302.863 347.694 304.025 349.114 304.025C350.457 304.025 351.722 302.837 351.67 301.468C351.619 300.074 350.56 298.912 349.114 298.912Z" fill="#8C4A2C"/>
<path d="M398.046 326.67C399.389 326.67 400.654 325.482 400.602 324.114C400.551 322.719 399.466 321.557 398.046 321.557C396.703 321.557 395.438 322.745 395.49 324.114C395.567 325.482 396.626 326.67 398.046 326.67Z" fill="#8C4A2C"/>
<path d="M381.184 312.778C381.133 311.384 380.048 310.222 378.628 310.222C377.285 310.222 376.02 311.41 376.072 312.778C376.123 314.173 377.182 315.335 378.628 315.335C379.971 315.335 381.262 314.173 381.184 312.778Z" fill="#8C4A2C"/>
<path d="M307.076 274.226C305.733 274.226 304.468 275.414 304.519 276.783C304.545 277.454 304.829 278.074 305.242 278.538C305.707 279.029 306.327 279.339 307.076 279.339C308.109 279.339 309.116 278.616 309.477 277.66C309.581 277.376 309.632 277.092 309.632 276.783C309.555 275.414 308.496 274.226 307.076 274.226Z" fill="#8C4A2C"/>
<path d="M248.848 310.48C250.19 310.48 251.456 309.292 251.404 307.924C251.352 306.529 250.294 305.367 248.848 305.367C247.505 305.367 246.24 306.555 246.291 307.924C246.343 309.318 247.402 310.48 248.848 310.48Z" fill="#8C4A2C"/>
<path d="M291.918 315.748C295.017 315.696 302.066 288.093 298.555 283.78C287.658 291.527 278.026 299.093 266.355 305.496C266.329 304.851 266.071 304.231 265.658 303.792C265.193 303.276 264.547 302.966 263.798 302.966C262.456 302.966 261.19 304.154 261.242 305.522C261.242 305.625 261.268 305.729 261.294 305.858C261.423 306.581 261.784 307.226 262.352 307.614C262.094 307.743 261.836 307.872 261.552 308.027C248.435 314.482 234.568 320.731 225.531 332.687C225.247 332.558 224.911 332.48 224.575 332.48C223.232 332.48 221.967 333.668 222.019 335.036C222.071 336.018 222.613 336.87 223.413 337.309C223.284 337.619 223.207 337.954 223.232 338.29C223.284 339.684 224.343 340.846 225.789 340.846C226.925 340.846 228.01 339.994 228.268 338.884C230.798 339.297 233.639 338.6 236.169 337.851C242.805 335.889 249.416 333.926 256.052 331.964C256.336 333.1 257.291 333.978 258.531 333.978C259.874 333.978 261.139 332.79 261.087 331.421C261.061 331.112 261.01 330.802 260.881 330.518C264.212 329.536 267.543 328.555 270.874 327.548C273.843 326.67 276.864 325.792 279.937 326.025C283.01 326.283 286.186 327.91 287.322 330.776C286.109 326.774 291.35 323.959 295.508 323.52C299.665 323.107 304.958 322.565 306.198 318.562C301.731 316.651 296.825 315.67 291.918 315.748Z" fill="#8C4A2C"/>
<path d="M217.422 341.079C217.371 339.684 216.312 338.522 214.866 338.522C214.066 338.522 213.317 338.936 212.826 339.555C212.491 339.994 212.284 340.511 212.31 341.079C212.361 342.473 213.446 343.635 214.866 343.635C215.512 343.635 216.157 343.351 216.648 342.912C217.138 342.447 217.448 341.802 217.422 341.079Z" fill="#8C4A2C"/>
<path d="M204.357 341.776C203.014 341.776 201.749 342.964 201.8 344.332C201.852 345.727 202.937 346.889 204.357 346.889C205.699 346.889 206.965 345.701 206.913 344.332C206.836 342.938 205.777 341.776 204.357 341.776Z" fill="#8C4A2C"/>
<path d="M276.322 328.426C274.979 328.426 273.714 329.614 273.766 330.983C273.817 332.377 274.902 333.539 276.322 333.539C277.665 333.539 278.93 332.351 278.878 330.983C278.827 329.588 277.768 328.426 276.322 328.426Z" fill="#8C4A2C"/>
<path d="M273.507 343.248C274.85 343.248 276.115 342.06 276.064 340.691C276.012 339.297 274.953 338.135 273.507 338.135C272.165 338.135 270.899 339.323 270.951 340.691C271.003 342.06 272.061 343.248 273.507 343.248Z" fill="#8C4A2C"/>
<path d="M103.574 415.29C103.755 413.767 104.865 412.502 106.337 412.192C110.133 411.366 114.187 411.288 117.26 408.267C117.905 407.647 118.293 406.821 118.577 405.969C118.732 405.478 118.835 404.884 118.551 404.445C118.319 404.11 117.931 403.929 117.544 403.774C110.598 401.192 102.8 402.121 95.647 404.161C88.546 406.175 81.3159 410.281 73.9567 410.978C73.2079 411.056 72.4849 411.107 71.7619 411.133C67.3463 411.34 66.9848 417.692 71.3229 418.389C73.337 418.725 75.3511 419.009 77.391 419.241C76.8229 419.577 76.2548 419.913 75.7126 420.248C83.8464 420.894 92.1094 420.145 99.9851 418.053C101.121 417.744 102.335 417.382 103.058 416.452C103.368 416.117 103.523 415.704 103.574 415.29Z" fill="#4D7434"/>
<path d="M89.0885 324.062C76.4358 327.058 63.6024 330.543 50.5882 331.318C48.8065 331.421 47.0765 331.499 45.3464 331.551C34.7853 331.835 33.9074 341.234 44.3135 342.292C49.1422 342.783 53.9709 343.196 58.8254 343.558C57.4826 344.048 56.1399 344.565 54.7972 345.055C68.3794 345.727 82.065 345.365 95.5181 344.048L89.0885 324.062Z" fill="#4D7434"/>
<path d="M385.729 360.987C384.541 362.511 384.489 364.938 386.581 366.307C388.285 367.417 390.015 368.527 391.745 369.56C391.1 369.638 390.454 369.715 389.783 369.793C396.961 373.718 404.785 376.403 412.842 377.694C414.004 377.875 415.269 378.03 416.328 377.488C416.689 377.307 416.999 376.997 417.231 376.635C418.006 375.319 419.53 374.621 421.027 374.931C424.823 375.732 428.567 377.307 432.595 375.809C433.422 375.499 434.119 374.905 434.739 374.234C435.1 373.847 435.41 373.356 435.332 372.84C435.255 372.426 434.971 372.117 434.661 371.833C429.368 366.642 421.879 364.293 414.52 363.234C407.213 362.175 398.95 362.976 391.952 360.6C391.306 360.394 390.687 360.161 390.093 359.903C390.041 359.877 389.964 359.851 389.912 359.825C388.156 359.18 386.607 359.825 385.729 360.987Z" fill="#4D7434"/>
<path d="M177.296 408.06C166.812 404.161 155.063 405.556 144.295 408.629C133.605 411.676 122.708 417.873 111.605 418.906C110.495 419.009 109.384 419.086 108.3 419.138C101.664 419.422 101.095 429.002 107.654 430.086C110.701 430.577 113.722 431.016 116.795 431.378C115.943 431.894 115.091 432.385 114.239 432.901C126.504 433.882 138.95 432.746 150.854 429.596C152.584 429.131 154.392 428.563 155.502 427.169C155.889 426.678 156.122 426.058 156.199 425.439C156.483 423.166 158.136 421.255 160.382 420.739C166.115 419.474 172.234 419.37 176.857 414.826C177.812 413.87 178.406 412.631 178.845 411.366C179.103 410.617 179.232 409.739 178.793 409.067C178.483 408.525 177.864 408.267 177.296 408.06Z" fill="#4D7434"/>
<path d="M318.799 394.556C302.686 388.565 284.637 390.708 268.085 395.434C251.662 400.107 234.904 409.61 217.862 411.236C216.132 411.391 214.453 411.521 212.801 411.572C202.601 412.011 201.723 426.73 211.819 428.382C216.493 429.157 221.167 429.802 225.84 430.37C224.549 431.145 223.232 431.946 221.941 432.72C240.791 434.218 259.925 432.488 278.207 427.633C280.841 426.936 283.655 426.058 285.36 423.915C285.954 423.166 286.315 422.211 286.444 421.229C286.857 417.718 289.414 414.774 292.874 414.025C301.653 412.089 311.078 411.934 318.179 404.936C319.651 403.49 320.581 401.579 321.226 399.617C321.613 398.481 321.82 397.112 321.174 396.079C320.632 395.279 319.703 394.865 318.799 394.556Z" fill="#4D7434"/>
<path d="M442.227 387.558C441.168 387.713 440.084 387.842 438.948 387.971C427.844 389.03 415.992 385.028 404.914 384.046C393.759 383.065 381.959 383.917 372.405 389.727C371.863 390.037 371.32 390.424 371.088 390.992C370.778 391.715 371.088 392.568 371.475 393.265C372.147 394.452 372.947 395.537 374.083 396.286C379.48 399.875 385.522 398.842 391.384 398.997C393.682 399.049 395.67 400.624 396.367 402.819C396.574 403.413 396.91 403.981 397.4 404.394C398.743 405.556 400.654 405.762 402.436 405.892C414.727 406.744 427.147 405.504 439.025 402.225C438.095 401.889 437.166 401.553 436.236 401.192C439.154 400.262 442.072 399.255 444.964 398.197C451.187 395.873 448.811 386.577 442.227 387.558Z" fill="#4D7434"/>
<path d="M80.877 271.722L73.8535 276.757L74.8864 279.959L81.8324 301.546L85.9639 314.327L86.0414 314.56L89.0884 324.011L95.518 343.997L97.2222 349.264C97.2222 349.264 115.478 365.119 136.394 381.438C135.568 379.088 134.302 376.919 132.65 375.06C136.549 376.3 140.138 378.391 143.133 381.18C142.669 380.612 142.204 380.044 141.739 379.476C120.152 362.124 101.07 344.229 101.07 344.229L80.877 271.722Z" fill="#242529"/>
<path d="M186.359 394.194C186.979 394.168 187.624 394.143 188.244 394.143C187.624 394.143 187.005 394.143 186.359 394.194Z" fill="#242529"/>
<path d="M173.577 397.189C173.371 397.06 173.138 396.957 172.906 396.828C173.112 396.931 173.345 397.06 173.577 397.189Z" fill="#242529"/>
<path d="M170.814 395.769C170.737 395.743 170.659 395.692 170.556 395.666C170.892 395.821 171.228 395.976 171.589 396.157C171.46 396.105 171.331 396.028 171.202 395.976C171.073 395.898 170.943 395.847 170.814 395.769Z" fill="#242529"/>
<path d="M167.922 394.607C167.845 394.582 167.767 394.556 167.69 394.53C168 394.633 168.335 394.762 168.645 394.866C168.594 394.84 168.516 394.814 168.465 394.788C168.284 394.736 168.103 394.685 167.922 394.607Z" fill="#242529"/>
<path d="M170.04 297.776L154.159 271.438L133.373 271.515C149.847 305.109 165.056 346.889 165.056 346.889C160.951 362.485 113.929 271.592 113.929 271.592C112.87 300.771 135.748 336.328 158.265 364.034C158.601 360.109 159.272 356.21 160.331 352.44C159.789 356.908 159.634 361.426 159.814 365.919C161.493 367.959 163.171 369.973 164.85 371.91C165.159 370.98 165.521 370.051 165.986 369.147C165.857 370.387 165.753 371.626 165.65 372.865C172.725 381.103 179.491 388.41 185.145 394.272C185.559 394.246 185.972 394.194 186.385 394.168C187.005 394.143 187.65 394.117 188.27 394.117C191.988 394.117 195.552 394.633 198.883 395.614C200.329 394.349 201.878 393.161 203.479 392.103C203.97 378.546 202.343 362.382 201.336 354.067C200.923 350.633 200.613 348.541 200.613 348.541L200.303 347.999L196.688 342.008L170.04 297.776Z" fill="#424448"/>
<path d="M171.202 395.976C171.331 396.028 171.46 396.105 171.589 396.157C172.028 396.363 172.467 396.596 172.906 396.828C173.138 396.957 173.371 397.06 173.603 397.19C172.803 396.751 172.002 396.337 171.202 395.976Z" fill="#424448"/>
<path d="M179.232 395.279C179.258 395.279 179.283 395.253 179.309 395.253C179.283 395.279 179.258 395.279 179.232 395.279Z" fill="#424448"/>
<path d="M167.922 394.607C167.638 394.504 167.354 394.401 167.07 394.297V394.323C167.277 394.401 167.483 394.452 167.69 394.53C167.768 394.556 167.845 394.582 167.922 394.607Z" fill="#424448"/>
<path d="M168.439 394.814C168.49 394.84 168.568 394.866 168.619 394.891C169.265 395.15 169.911 395.408 170.556 395.692C170.634 395.718 170.711 395.769 170.814 395.795C170.04 395.434 169.239 395.098 168.439 394.814Z" fill="#424448"/>
<path d="M168.439 394.814C169.239 395.124 170.014 395.434 170.788 395.795C170.918 395.847 171.047 395.924 171.176 395.976C171.976 396.363 172.777 396.75 173.551 397.189C174.378 396.828 175.23 396.518 176.082 396.234C176.237 396.182 176.392 396.131 176.547 396.079C177.425 395.795 178.303 395.537 179.181 395.304C179.206 395.304 179.232 395.279 179.258 395.279C180.213 395.046 181.169 394.84 182.124 394.685C183.105 394.53 184.087 394.401 185.094 394.297C179.439 388.436 172.648 381.154 165.598 372.891C165.134 380.044 165.624 387.274 167.044 394.323C167.328 394.427 167.612 394.53 167.896 394.633C168.103 394.685 168.284 394.736 168.439 394.814Z" fill="#535558"/>
<path d="M159.788 365.945C160.047 372.788 161.105 379.605 162.965 386.189C163.094 381.386 163.3 376.429 164.824 371.936C163.145 369.973 161.467 367.985 159.788 365.945Z" fill="#535558"/>
<path d="M113.929 271.592L103.91 271.644L80.877 271.747L101.044 344.306C101.044 344.306 120.126 362.201 141.713 379.553C131.746 367.494 121.856 355.281 114.394 341.544C121.83 351.02 130.042 359.851 138.924 367.959C143.805 372.401 148.969 376.764 152.068 382.6C150.002 375.654 147.213 368.889 143.805 362.485C149.924 367.753 155.115 374.131 159.014 381.206C157.981 375.577 157.723 369.793 158.213 364.086C135.748 336.353 112.87 300.797 113.929 271.592Z" fill="#535558"/>
<path d="M115.995 241.174C115.995 241.174 106.854 233.144 95.5697 244.325L97.6871 251.271L103.91 271.644L113.929 271.592C113.929 271.592 160.95 362.511 165.056 346.889C165.056 346.889 149.847 305.109 133.373 271.515C128.183 260.954 122.889 251.219 117.88 243.834L115.995 241.174ZM161.209 342.551C147.936 312.055 106.363 240.142 106.363 240.142C108.997 238.541 113.103 241.045 113.103 241.045C133.295 258.785 161.209 342.551 161.209 342.551Z" fill="#838383"/>
<path d="M113.103 241.045C113.103 241.045 108.997 238.541 106.363 240.142C106.363 240.142 147.962 312.055 161.209 342.551C161.209 342.551 133.295 258.785 113.103 241.045Z" fill="#908F90"/>
<path d="M83.9757 173.237C82.7363 170.655 81.471 168.073 80.2057 165.517C78.7339 162.547 77.2879 159.629 75.816 156.763C74.2151 153.613 72.6141 150.566 71.0648 147.622C62.8535 132.155 55.3652 120.2 50.8464 117.721C44.6233 114.312 39.1233 115.939 34.7852 119.528C34.7852 119.528 28.4847 143.207 64.5061 183.747C90.2504 212.745 97.2739 228.186 99.1847 234.642C103.368 231.698 107.086 230.794 110.236 231.052C105.743 220.672 95.234 196.58 83.9757 173.237Z" fill="#AA6116"/>
<path d="M25.6443 141.76C24.9988 140.211 24.6115 138.972 24.534 138.12C24.4823 138.791 24.8697 140.056 25.6443 141.76Z" fill="#AA6116"/>
<path d="M52.4215 185.942C54.1516 188.524 55.8816 191.106 57.6117 193.688C74.4475 218.58 91.3607 242.233 91.3607 242.233C92.4452 240.684 94.0978 238.85 96.5251 236.733C97.4288 235.958 98.281 235.287 99.1331 234.667C97.2223 228.212 90.1987 212.745 64.4544 183.773C28.4589 143.207 34.7852 119.528 34.7852 119.528C23.0105 127.688 24.534 138.146 24.534 138.146C24.6115 138.998 24.9988 140.237 25.6443 141.786C28.304 148.139 35.4566 159.939 44.1069 173.315C45.3722 175.277 46.6632 177.24 47.9802 179.254C49.452 181.449 50.9238 183.695 52.4215 185.942Z" fill="#915410"/>
<path d="M45.553 130.373C51.4662 143.516 87.9782 194.824 91.2575 204.688L90.5862 199.291C90.5862 199.291 58.9545 124.951 49.6845 119.476C49.6845 119.476 39.614 117.23 45.553 130.373Z" fill="#BE6B1A"/>
<path d="M97.6871 251.271L95.5697 244.325C106.854 233.144 115.995 241.174 115.995 241.174L117.88 243.834L117.931 243.886C117.931 243.886 120.255 243.421 121.262 241.226C122.14 239.315 117.931 231.698 110.236 231.052C107.086 230.794 103.368 231.698 99.1847 234.642C98.3326 235.235 97.4546 235.907 96.5767 236.707C94.1236 238.85 92.4711 240.658 91.4124 242.207C85.4734 250.806 97.6612 251.271 97.6871 251.271ZM119.222 239.444C119.222 239.444 119.636 241.639 116.175 239.031C112.715 236.423 109.255 232.86 100.243 235.881C100.243 235.907 113.335 227.541 119.222 239.444Z" fill="#908F90"/>
<path d="M116.175 239.057C119.635 241.665 119.222 239.47 119.222 239.47C113.335 227.566 100.243 235.933 100.243 235.933C109.255 232.886 112.715 236.449 116.175 239.057Z" fill="#979797"/>
</svg>
